<?xml version="1.0" standalone="no"?><!DOCTYPE svg PUBLIC "-//W3C//DTD SVG 1.1//EN" "http://www.w3.org/Graphics/SVG/1.1/DTD/svg11.dtd"><svg t="1574866681735" class="icon" viewBox="0 0 1024 1024" version="1.1" xmlns="http://www.w3.org/2000/svg" p-id="5464" xmlns:xlink="http://www.w3.org/1999/xlink" width="200" height="200"><defs><style type="text/css"></style></defs><path d="M460.8 51.424a51.2 51.2 0 1 1 102.4 0v204.352a51.2 51.2 0 1 1-102.4 0V51.424z m340.672 98.688a51.2 51.2 0 1 1 72.416 72.416l-144.512 144.512a51.2 51.2 0 0 1-72.576 0.16 51.36 51.36 0 0 1 0.16-72.576l144.512-144.512z m171.104 310.688a51.2 51.2 0 1 1 0 102.4h-204.352a51.2 51.2 0 1 1 0-102.4h204.352z m-98.688 340.672a51.2 51.2 0 1 1-72.416 72.416l-144.512-144.512a51.2 51.2 0 1 1 72.416-72.416l144.512 144.512zM563.2 972.576a51.2 51.2 0 1 1-102.4 0v-204.352a51.2 51.2 0 1 1 102.4 0v204.352zM222.528 873.888a51.2 51.2 0 1 1-72.416-72.416l144.512-144.512a51.2 51.2 0 1 1 72.416 72.416l-144.512 144.512zM51.424 563.2a51.2 51.2 0 1 1 0-102.4h204.352a51.2 51.2 0 1 1 0 102.4H51.424zM150.112 222.528a51.2 51.2 0 1 1 72.416-72.416l144.512 144.512a51.2 51.2 0 0 1 0.16 72.576 51.36 51.36 0 0 1-72.576-0.16L150.112 222.528z" p-id="5465"></path></svg>