<?xml version="1.0" standalone="no"?><!DOCTYPE svg PUBLIC "-//W3C//DTD SVG 1.1//EN" "http://www.w3.org/Graphics/SVG/1.1/DTD/svg11.dtd"><svg t="1574795681085" class="icon" viewBox="0 0 1024 1024" version="1.1" xmlns="http://www.w3.org/2000/svg" p-id="4421" xmlns:xlink="http://www.w3.org/1999/xlink" width="200" height="200"><defs><style type="text/css"></style></defs><path d="M910.222222 893.610667a113.777778 113.777778 0 0 1-76.117333-29.184L758.556444 796.444444H227.555556a227.555556 227.555556 0 0 1-227.555556-227.555555V341.333333a227.555556 227.555556 0 0 1 227.555556-227.555555h568.888888a227.555556 227.555556 0 0 1 227.555556 227.555555v455.111111a115.996444 115.996444 0 0 1-113.777778 97.166223zM938.666667 341.333333A142.222222 142.222222 0 0 0 796.444444 199.111111H227.555556A142.222222 142.222222 0 0 0 85.333333 341.333333v227.555556A142.222222 142.222222 0 0 0 227.555556 711.111111h563.768888l99.896889 89.884445a28.444444 28.444444 0 0 0 47.160889-16.896l0.284445-2.104889V341.333333zM341.333333 512a56.888889 56.888889 0 1 1 0-113.777778 56.888889 56.888889 0 0 1 0 113.777778z m341.333334 0a56.888889 56.888889 0 1 1 0-113.777778 56.888889 56.888889 0 0 1 0 113.777778z" p-id="4422"></path></svg>